<?xml version="1.0" encoding="UTF-8"?>
<svg xmlns="http://www.w3.org/2000/svg" xmlns:xlink="http://www.w3.org/1999/xlink" width="920px" height="920px" viewBox="0 0 920 919" version="1.1">
<g id="surface1">
<path style=" stroke:none;fill-rule:nonzero;fill:rgb(100%,0%,40%);fill-opacity:1;" d="M 538.660156 277.078125 C 564.421875 338.191406 589.261719 354.273438 639.859375 377.25 C 690 400.222656 765.441406 429.632812 759.460938 456.285156 C 753.941406 482.476562 667 505.910156 615.019531 525.667969 C 563.039062 545.425781 546.019531 561.96875 525.78125 585.863281 C 506 610.214844 483 641.460938 453.558594 652.949219 C 424.121094 663.976562 388.238281 654.789062 336.71875 648.8125 C 285.199219 642.839844 217.578125 640.542969 215.738281 609.757812 C 213.441406 578.511719 276.460938 519.234375 293.019531 469.148438 C 310.039062 419.523438 280.601562 379.085938 281.519531 346.464844 C 282.898438 313.839844 315.101562 289.027344 350.058594 233.425781 C 384.558594 177.367188 422.28125 90.980469 454.480469 100.628906 C 486.21875 110.28125 512.898438 216.425781 538.660156 277.078125 Z M 538.660156 277.078125 "/>
</g>
</svg>
